<svg width="67" height="67" viewBox="0 0 67 67" fill="none" xmlns="http://www.w3.org/2000/svg">
<g filter="url(#filter0_d_1967_3183)">
<circle cx="33.5" cy="33.5" r="21.5" fill="white"/>
</g>
<path d="M29.0128 40.2699V38.8381L33.4425 34.2486C33.9155 33.75 34.3054 33.3132 34.6122 32.9382C34.9233 32.5589 35.1555 32.1989 35.3089 31.858C35.4624 31.517 35.5391 31.1548 35.5391 30.7713C35.5391 30.3366 35.4368 29.9616 35.2322 29.6463C35.0277 29.3267 34.7486 29.0817 34.3949 28.9112C34.0412 28.7365 33.6428 28.6491 33.1996 28.6491C32.7308 28.6491 32.3217 28.745 31.9723 28.9368C31.6229 29.1286 31.3544 29.3991 31.1669 29.7486C30.9794 30.098 30.8857 30.5071 30.8857 30.9759H29C29 30.179 29.1832 29.4822 29.5497 28.8857C29.9162 28.2891 30.419 27.8267 31.0582 27.4986C31.6974 27.1662 32.424 27 33.2379 27C34.0604 27 34.7848 27.1641 35.4112 27.4922C36.0419 27.8161 36.5341 28.2592 36.8878 28.8217C37.2415 29.38 37.4183 30.0107 37.4183 30.7138C37.4183 31.1996 37.3267 31.6747 37.1435 32.1392C36.9645 32.6037 36.6513 33.1214 36.2038 33.6925C35.7564 34.2592 35.1342 34.9474 34.3374 35.7571L31.7358 38.4801V38.576H37.6293V40.2699H29.0128Z" fill="black"/>
<defs>
<filter id="filter0_d_1967_3183" x="0.12" y="0.12" width="66.76" height="66.76" filterUnits="userSpaceOnUse" color-interpolation-filters="sRGB">
<feFlood flood-opacity="0" result="BackgroundImageFix"/>
<feColorMatrix in="SourceAlpha" type="matrix" values="0 0 0 0 0 0 0 0 0 0 0 0 0 0 0 0 0 0 127 0" result="hardAlpha"/>
<feOffset/>
<feGaussianBlur stdDeviation="5.94"/>
<feComposite in2="hardAlpha" operator="out"/>
<feColorMatrix type="matrix" values="0 0 0 0 0 0 0 0 0 0 0 0 0 0 0 0 0 0 0.12 0"/>
<feBlend mode="normal" in2="BackgroundImageFix" result="effect1_dropShadow_1967_3183"/>
<feBlend mode="normal" in="SourceGraphic" in2="effect1_dropShadow_1967_3183" result="shape"/>
</filter>
</defs>
</svg>
