<svg width="67" height="67" viewBox="0 0 67 67" fill="none" xmlns="http://www.w3.org/2000/svg">
<g filter="url(#filter0_d_1967_3182)">
<circle cx="33.5" cy="33.5" r="21.5" fill="white"/>
</g>
<path d="M33.6214 40.4489C32.7436 40.4489 31.9595 40.2976 31.2692 39.995C30.5831 39.6925 30.0398 39.2727 29.6392 38.7358C29.2429 38.1946 29.0298 37.5682 29 36.8565H31.0071C31.0327 37.2443 31.1626 37.581 31.397 37.8665C31.6357 38.1477 31.9467 38.3651 32.3303 38.5185C32.7138 38.6719 33.1399 38.7486 33.6087 38.7486C34.1243 38.7486 34.5803 38.6591 34.9766 38.4801C35.3771 38.3011 35.6903 38.0518 35.9162 37.7322C36.142 37.4084 36.255 37.0355 36.255 36.6136C36.255 36.1747 36.142 35.7891 35.9162 35.4567C35.6946 35.12 35.3686 34.8558 34.9382 34.6641C34.5121 34.4723 33.9964 34.3764 33.3913 34.3764H32.2855V32.7656H33.3913C33.8771 32.7656 34.3033 32.6783 34.6697 32.5036C35.0405 32.3288 35.3303 32.0859 35.5391 31.7749C35.7479 31.4595 35.8523 31.0909 35.8523 30.669C35.8523 30.2642 35.7607 29.9126 35.5774 29.6143C35.3984 29.3118 35.1428 29.0753 34.8104 28.9048C34.4822 28.7344 34.0945 28.6491 33.647 28.6491C33.2209 28.6491 32.8224 28.728 32.4517 28.8857C32.0852 29.0391 31.7869 29.2607 31.5568 29.5504C31.3267 29.8359 31.2031 30.179 31.1861 30.5795H29.2749C29.2962 29.8722 29.505 29.25 29.9013 28.7131C30.3018 28.1761 30.8303 27.7564 31.4865 27.4538C32.1428 27.1513 32.8714 27 33.6726 27C34.5121 27 35.2365 27.1641 35.8459 27.4922C36.4595 27.8161 36.9325 28.2486 37.2649 28.7898C37.6016 29.331 37.7678 29.9233 37.7635 30.5668C37.7678 31.2997 37.5632 31.9219 37.1499 32.4332C36.7408 32.9446 36.1953 33.2876 35.5135 33.4624V33.5646C36.3828 33.6967 37.0561 34.0419 37.5334 34.6001C38.0149 35.1584 38.2536 35.8509 38.2493 36.6776C38.2536 37.3977 38.0533 38.0433 37.6484 38.6143C37.2479 39.1854 36.7003 39.6349 36.0057 39.9631C35.3111 40.2869 34.5163 40.4489 33.6214 40.4489Z" fill="black"/>
<defs>
<filter id="filter0_d_1967_3182" x="0.12" y="0.12" width="66.76" height="66.76" filterUnits="userSpaceOnUse" color-interpolation-filters="sRGB">
<feFlood flood-opacity="0" result="BackgroundImageFix"/>
<feColorMatrix in="SourceAlpha" type="matrix" values="0 0 0 0 0 0 0 0 0 0 0 0 0 0 0 0 0 0 127 0" result="hardAlpha"/>
<feOffset/>
<feGaussianBlur stdDeviation="5.94"/>
<feComposite in2="hardAlpha" operator="out"/>
<feColorMatrix type="matrix" values="0 0 0 0 0 0 0 0 0 0 0 0 0 0 0 0 0 0 0.12 0"/>
<feBlend mode="normal" in2="BackgroundImageFix" result="effect1_dropShadow_1967_3182"/>
<feBlend mode="normal" in="SourceGraphic" in2="effect1_dropShadow_1967_3182" result="shape"/>
</filter>
</defs>
</svg>
