<svg width="43" height="43" viewBox="0 0 43 43" fill="none" xmlns="http://www.w3.org/2000/svg">
<circle cx="21.5" cy="21.5" r="21.5" fill="#EEF4FA"/>
<path d="M17.0128 28.2699V26.8381L21.4425 22.2486C21.9155 21.75 22.3054 21.3132 22.6122 20.9382C22.9233 20.5589 23.1555 20.1989 23.3089 19.858C23.4624 19.517 23.5391 19.1548 23.5391 18.7713C23.5391 18.3366 23.4368 17.9616 23.2322 17.6463C23.0277 17.3267 22.7486 17.0817 22.3949 16.9112C22.0412 16.7365 21.6428 16.6491 21.1996 16.6491C20.7308 16.6491 20.3217 16.745 19.9723 16.9368C19.6229 17.1286 19.3544 17.3991 19.1669 17.7486C18.9794 18.098 18.8857 18.5071 18.8857 18.9759H17C17 18.179 17.1832 17.4822 17.5497 16.8857C17.9162 16.2891 18.419 15.8267 19.0582 15.4986C19.6974 15.1662 20.424 15 21.2379 15C22.0604 15 22.7848 15.1641 23.4112 15.4922C24.0419 15.8161 24.5341 16.2592 24.8878 16.8217C25.2415 17.38 25.4183 18.0107 25.4183 18.7138C25.4183 19.1996 25.3267 19.6747 25.1435 20.1392C24.9645 20.6037 24.6513 21.1214 24.2038 21.6925C23.7564 22.2592 23.1342 22.9474 22.3374 23.7571L19.7358 26.4801V26.576H25.6293V28.2699H17.0128Z" fill="black"/>
</svg>
