<svg width="43" height="43" viewBox="0 0 43 43" fill="none" xmlns="http://www.w3.org/2000/svg">
<circle cx="21.5" cy="21.5" r="21.5" fill="#EEF4FA"/>
<path d="M21.6214 28.4489C20.7436 28.4489 19.9595 28.2976 19.2692 27.995C18.5831 27.6925 18.0398 27.2727 17.6392 26.7358C17.2429 26.1946 17.0298 25.5682 17 24.8565H19.0071C19.0327 25.2443 19.1626 25.581 19.397 25.8665C19.6357 26.1477 19.9467 26.3651 20.3303 26.5185C20.7138 26.6719 21.1399 26.7486 21.6087 26.7486C22.1243 26.7486 22.5803 26.6591 22.9766 26.4801C23.3771 26.3011 23.6903 26.0518 23.9162 25.7322C24.142 25.4084 24.255 25.0355 24.255 24.6136C24.255 24.1747 24.142 23.7891 23.9162 23.4567C23.6946 23.12 23.3686 22.8558 22.9382 22.6641C22.5121 22.4723 21.9964 22.3764 21.3913 22.3764H20.2855V20.7656H21.3913C21.8771 20.7656 22.3033 20.6783 22.6697 20.5036C23.0405 20.3288 23.3303 20.0859 23.5391 19.7749C23.7479 19.4595 23.8523 19.0909 23.8523 18.669C23.8523 18.2642 23.7607 17.9126 23.5774 17.6143C23.3984 17.3118 23.1428 17.0753 22.8104 16.9048C22.4822 16.7344 22.0945 16.6491 21.647 16.6491C21.2209 16.6491 20.8224 16.728 20.4517 16.8857C20.0852 17.0391 19.7869 17.2607 19.5568 17.5504C19.3267 17.8359 19.2031 18.179 19.1861 18.5795H17.2749C17.2962 17.8722 17.505 17.25 17.9013 16.7131C18.3018 16.1761 18.8303 15.7564 19.4865 15.4538C20.1428 15.1513 20.8714 15 21.6726 15C22.5121 15 23.2365 15.1641 23.8459 15.4922C24.4595 15.8161 24.9325 16.2486 25.2649 16.7898C25.6016 17.331 25.7678 17.9233 25.7635 18.5668C25.7678 19.2997 25.5632 19.9219 25.1499 20.4332C24.7408 20.9446 24.1953 21.2876 23.5135 21.4624V21.5646C24.3828 21.6967 25.0561 22.0419 25.5334 22.6001C26.0149 23.1584 26.2536 23.8509 26.2493 24.6776C26.2536 25.3977 26.0533 26.0433 25.6484 26.6143C25.2479 27.1854 24.7003 27.6349 24.0057 27.9631C23.3111 28.2869 22.5163 28.4489 21.6214 28.4489Z" fill="black"/>
</svg>
