<?xml version="1.0" encoding="utf-8"?>
<!-- Generator: Adobe Illustrator 26.0.1, SVG Export Plug-In . SVG Version: 6.00 Build 0)  -->
<svg version="1.1" id="Layer_1" xmlns="http://www.w3.org/2000/svg" xmlns:xlink="http://www.w3.org/1999/xlink" x="0px" y="0px"
	 viewBox="0 0 21 20" style="enable-background:new 0 0 21 20;" xml:space="preserve">
<g>
	<path d="M15.8,2C11.4-0.7,5.1,0.4,2,4.5C0.4,6.6-0.2,9,0.4,10.9c0.4,1.2,1.2,2,2.4,2.4l0.4,0.1c1,0.2,1.8,0,2.8-0.4l0.5-0.2
		c0.3-0.1,0.5-0.2,0.7-0.2c0.2,0,0.4,0.1,0.6,0.2c0.2,0.1,0.4,0.4,0.5,1.3l0.2,1.4c0.2,1.6,0.6,2.9,2,3.9c1.4,1,3.2,1.3,4.9,0.8
		c2.2-0.7,3.9-2.5,4.9-5C22,10,20.2,4.8,15.8,2z M19.4,14.8c-0.8,2.3-2.5,4-4.4,4.6c-0.5,0.1-1,0.2-1.4,0.2c-1,0-1.9-0.3-2.8-0.9
		c-1-0.7-1.5-1.7-1.7-3.4L9,13.9C8.8,13,8.7,12.3,8.1,12C7.4,11.7,7,11.7,6.1,12l-0.5,0.2c-1,0.5-1.6,0.5-2.3,0.4L3,12.5
		c-0.9-0.3-1.6-0.9-1.9-1.9C0.6,9,1.2,6.9,2.6,4.9c2.8-3.8,8.7-4.8,12.9-2.3C19.5,5.2,21.1,10.1,19.4,14.8z"/>
</g>
<g>
	<path d="M17.8,7.3c0-0.2-0.1-0.4-0.3-0.6S17.2,6.4,17,6.3c-0.2-0.1-0.4-0.2-0.6-0.2c-0.2,0-0.4,0-0.6,0c-0.2,0.1-0.4,0.2-0.6,0.3
		c-0.2,0.1-0.3,0.3-0.4,0.5c-0.1,0.2-0.2,0.4-0.2,0.6c0,0.2,0,0.4,0,0.6l0,0c0.1,0.4,0.4,0.7,0.8,0.9c0.4,0.2,0.8,0.3,1.2,0.1
		c0.4-0.1,0.8-0.4,1-0.7C17.8,8.1,17.8,7.7,17.8,7.3z M16.9,8.1c-0.1,0.2-0.3,0.3-0.5,0.4c-0.1,0-0.2,0-0.2,0c-0.1,0-0.3,0-0.4-0.1
		c-0.2-0.1-0.3-0.3-0.4-0.5c0-0.1,0-0.2,0-0.3V7.6c0-0.1,0-0.2,0.1-0.3c0.1-0.1,0.1-0.2,0.2-0.3c0.1-0.1,0.2-0.1,0.3-0.1
		c0.1,0,0.2,0,0.3,0c0.1,0,0.2,0,0.3,0.1s0.2,0.1,0.3,0.2C17,7.2,17,7.3,17,7.5C17.1,7.7,17,7.9,16.9,8.1z"/>
</g>
<g>
	<path d="M18.3,12.2c-0.1-0.4-0.4-0.8-0.8-1C17.3,11,17,11,16.7,11c-0.1,0-0.3,0-0.4,0.1c-0.4,0.1-0.8,0.4-1,0.8
		c-0.2,0.4-0.3,0.8-0.2,1.2c0,0.2,0.2,0.4,0.3,0.6c0.1,0.2,0.3,0.3,0.5,0.4c0.2,0.1,0.4,0.2,0.6,0.2c0.2,0,0.4,0,0.6-0.1
		c0.2,0,0.4-0.1,0.6-0.3s0.3-0.3,0.4-0.5c0.1-0.2,0.2-0.4,0.2-0.6C18.3,12.6,18.3,12.4,18.3,12.2z M17.5,13
		c-0.1,0.1-0.1,0.2-0.2,0.3c-0.1,0.1-0.2,0.1-0.3,0.2c-0.1,0-0.2,0-0.2,0c0,0-0.1,0-0.1,0c-0.1,0-0.2-0.1-0.3-0.1
		c-0.1-0.1-0.2-0.1-0.3-0.2c-0.1-0.1-0.1-0.2-0.2-0.3v0c-0.1-0.2,0-0.4,0.1-0.6c0.1-0.2,0.3-0.3,0.5-0.4c0.2-0.1,0.5,0,0.7,0.1
		c0.2,0.1,0.3,0.3,0.4,0.5c0,0.1,0,0.2,0,0.3C17.5,12.8,17.5,12.9,17.5,13z"/>
</g>
<g>
	<path d="M13.8,4.8c-0.1-0.4-0.4-0.8-0.8-1c-0.2-0.2-0.5-0.2-0.8-0.2c-0.1,0-0.3,0-0.4,0c-0.4,0.1-0.8,0.4-1,0.8
		c-0.2,0.4-0.3,0.8-0.2,1.2c0,0.2,0.2,0.4,0.3,0.6c0.1,0.2,0.3,0.3,0.5,0.4c0.4,0.2,0.8,0.3,1.2,0.2c0.2,0,0.4-0.1,0.6-0.3
		c0.2-0.1,0.3-0.3,0.4-0.5c0.1-0.2,0.2-0.4,0.2-0.6C13.8,5.2,13.8,5,13.8,4.8z M13,5.6c-0.1,0.1-0.1,0.2-0.2,0.3
		C12.6,5.9,12.5,6,12.4,6c-0.1,0-0.1,0-0.2,0c-0.2,0-0.3,0-0.4-0.1c-0.1,0-0.2-0.1-0.3-0.2c-0.1-0.1-0.1-0.2-0.2-0.3
		c-0.1-0.2,0-0.5,0.1-0.7s0.3-0.3,0.5-0.4c0.2-0.1,0.5,0,0.7,0.1C12.8,4.5,13,4.7,13,5c0,0.1,0,0.2,0,0.3C13,5.4,13,5.5,13,5.6z"/>
</g>
<g>
	<path d="M15.5,16.2c-0.1-0.2-0.1-0.4-0.3-0.6c-0.1-0.2-0.3-0.3-0.5-0.4c-0.2-0.1-0.4-0.2-0.6-0.2c-0.2,0-0.4,0-0.6,0
		c-0.2,0.1-0.4,0.1-0.6,0.3c-0.2,0.1-0.3,0.3-0.4,0.5c-0.1,0.2-0.2,0.4-0.2,0.6c0,0.2,0,0.4,0.1,0.6v0c0.1,0.4,0.4,0.7,0.8,0.9
		c0.4,0.2,0.8,0.3,1.2,0.1c0.4-0.1,0.8-0.4,1-0.7C15.6,17,15.6,16.6,15.5,16.2z M14.7,17c-0.1,0.2-0.3,0.3-0.5,0.4
		c-0.1,0-0.1,0-0.2,0c-0.2,0-0.3,0-0.4-0.1c-0.2-0.1-0.4-0.3-0.4-0.5c0-0.1,0-0.2,0-0.3v-0.1c0-0.1,0-0.2,0.1-0.3
		c0.1-0.1,0.1-0.2,0.2-0.3c0.1-0.1,0.2-0.1,0.3-0.2c0.1,0,0.2,0,0.4,0c0.1,0,0.2,0.1,0.3,0.1c0.1,0.1,0.2,0.1,0.2,0.2
		c0.1,0.1,0.1,0.2,0.1,0.3C14.8,16.6,14.8,16.8,14.7,17z"/>
</g>
<g>
	<path d="M9,4.4C9,4.2,8.9,4,8.8,3.8C8.6,3.7,8.5,3.5,8.3,3.4C8.1,3.3,7.9,3.2,7.7,3.2c-0.1,0-0.1,0-0.2,0c-0.1,0-0.3,0-0.4,0
		C6.8,3.3,6.7,3.4,6.5,3.5C6.3,3.7,6.2,3.8,6,4C6,4.2,5.9,4.4,5.8,4.6c0,0.2,0,0.4,0.1,0.6C6,5.7,6.3,6,6.7,6.2
		C7,6.4,7.5,6.5,7.9,6.4c0.4-0.1,0.8-0.4,1-0.8C9.1,5.2,9.2,4.8,9,4.4z M8.2,5.2C8.1,5.5,7.9,5.6,7.7,5.7c-0.1,0-0.2,0-0.2,0
		c-0.2,0-0.3,0-0.4-0.1C6.8,5.5,6.7,5.3,6.6,5c0-0.1,0-0.1,0-0.2c0,0,0-0.1,0-0.1c0-0.1,0.1-0.2,0.1-0.3c0.1-0.1,0.1-0.2,0.2-0.3
		C7,4,7.1,4,7.2,4c0.1,0,0.2,0,0.3,0C7.7,4,7.8,4,7.9,4C8,4.1,8.1,4.2,8.2,4.3c0.1,0.1,0.1,0.2,0.2,0.3C8.4,4.8,8.3,5,8.2,5.2z"/>
</g>
</svg>
