<svg width="42" height="33" viewBox="0 0 42 33" fill="none" xmlns="http://www.w3.org/2000/svg">
<path d="M40.332 0V2.39258C36.9466 3.62956 34.2936 5.58268 32.373 8.25195C30.4525 10.8887 29.4922 13.6393 29.4922 16.5039C29.4922 17.1224 29.5898 17.5781 29.7852 17.8711C29.9154 18.0664 30.0618 18.1641 30.2246 18.1641C30.3874 18.1641 30.6315 18.0501 30.957 17.8223C31.9987 17.0736 33.3171 16.6992 34.9121 16.6992C36.7676 16.6992 38.4115 17.4642 39.8438 18.9941C41.276 20.4915 41.9922 22.2819 41.9922 24.3652C41.9922 26.5462 41.1621 28.4668 39.502 30.127C37.8743 31.7871 35.8887 32.6172 33.5449 32.6172C30.8105 32.6172 28.4505 31.4941 26.4648 29.248C24.4792 27.002 23.4863 23.9909 23.4863 20.2148C23.4863 15.8203 24.8372 11.8815 27.5391 8.39844C30.2409 4.91536 34.5052 2.11589 40.332 0ZM16.8457 0V2.39258C13.4603 3.62956 10.8073 5.58268 8.88672 8.25195C6.96615 10.8887 6.00586 13.6393 6.00586 16.5039C6.00586 17.1224 6.10352 17.5781 6.29883 17.8711C6.42904 18.0664 6.57552 18.1641 6.73828 18.1641C6.90104 18.1641 7.14518 18.0501 7.4707 17.8223C8.51237 17.0736 9.83073 16.6992 11.4258 16.6992C13.2812 16.6992 14.9251 17.4642 16.3574 18.9941C17.7897 20.4915 18.5059 22.2819 18.5059 24.3652C18.5059 26.5462 17.6758 28.4668 16.0156 30.127C14.388 31.7871 12.4023 32.6172 10.0586 32.6172C7.32422 32.6172 4.96419 31.4941 2.97852 29.248C0.992839 27.002 0 23.9909 0 20.2148C0 15.8203 1.35091 11.8815 4.05273 8.39844C6.75456 4.91536 11.0189 2.11589 16.8457 0Z" fill="#D6D6D6"/>
</svg>
