<svg width="156" height="39" viewBox="0 0 156 39" fill="none" xmlns="http://www.w3.org/2000/svg">
<path d="M28.5227 3.31104H23.5871C22.7288 3.31104 21.8704 3.95473 21.7784 4.81313L21.0426 8.33868C20.9507 8.98237 20.3988 9.41157 19.755 9.41157H14.2983C6.91009 9.50354 0.0737305 15.083 0.0737305 22.9923C0.0737305 30.0433 5.95974 36.4812 14.4209 36.4812H20.0003C20.8587 36.4812 21.7171 35.8374 21.8091 34.979L22.5448 31.4535C22.6368 30.8097 23.1886 30.3805 23.8323 30.3805H28.6454C36.892 30.3805 42.9925 24.0653 42.9925 16.8918C42.8699 8.98237 36.1256 3.31104 28.5227 3.31104ZM28.4001 25.1383H22.6061C21.7477 25.1383 21.012 25.7821 20.7974 26.6405L20.0616 30.074C19.9696 30.7178 19.4178 31.147 18.7741 31.147H14.4821C10.0983 31.147 5.37727 28.0506 5.37727 22.9003C5.37727 18.1793 9.54653 14.6538 14.4821 14.6538H21.104C21.9623 14.6538 22.6981 14.01 22.9127 13.1517L23.6484 9.71814C23.7403 9.07434 24.2922 8.64515 24.936 8.64515H28.3695C32.9679 8.64515 37.4744 11.8641 37.4744 16.8918C37.4131 21.4902 33.4584 25.1383 28.4001 25.1383Z" fill="white"/>
<path d="M54.0269 13.812V25.5718C54.0269 26.688 54.3169 27.5581 54.897 28.1821C55.4858 28.7974 56.3164 29.105 57.3887 29.105C58.4609 29.105 59.2871 28.7974 59.8672 28.1821C60.4473 27.5581 60.7373 26.688 60.7373 25.5718V13.812H65.5757V26.0859C65.5757 28.2217 64.8286 29.9355 63.3345 31.2275C61.8403 32.5195 59.8584 33.1655 57.3887 33.1655C54.9102 33.1655 52.9238 32.5195 51.4297 31.2275C49.9355 29.9355 49.1885 28.2217 49.1885 26.0859V13.812H54.0269ZM70.6698 15.2622H75.35V18.479H77.934V21.9199H75.35V27.9448C75.35 28.938 75.8993 29.4346 76.9979 29.4346C77.3847 29.4346 77.6923 29.4126 77.9208 29.3687V32.6909C77.3671 32.8052 76.6859 32.8623 75.8773 32.8623C74.0141 32.8623 72.6781 32.5547 71.8695 31.9395C71.0697 31.3242 70.6698 30.3091 70.6698 28.894V21.9199H68.7187V18.479H70.6698V15.2622ZM81.2879 32.8359V13.812H85.8626V21.1816H85.9549C86.324 20.2148 86.8909 19.4766 87.6556 18.9668C88.429 18.457 89.3606 18.2021 90.4505 18.2021C92.0413 18.2021 93.2674 18.6812 94.1287 19.6392C94.9988 20.5884 95.4339 21.9155 95.4339 23.6206V32.8359H90.7669V24.6357C90.7669 23.8096 90.5647 23.168 90.1604 22.7109C89.7562 22.2451 89.1761 22.0122 88.4202 22.0122C87.6468 22.0122 87.0447 22.2627 86.6141 22.7637C86.1834 23.2646 85.9681 23.9238 85.9681 24.7412V32.8359H81.2879ZM105.775 21.4585C105.063 21.4585 104.461 21.7002 103.969 22.1836C103.486 22.6582 103.213 23.269 103.152 24.0161H108.372C108.328 23.2515 108.069 22.6362 107.594 22.1704C107.12 21.6958 106.513 21.4585 105.775 21.4585ZM108.478 28.3008H112.696C112.468 29.7861 111.738 30.9727 110.508 31.8604C109.278 32.7393 107.726 33.1787 105.854 33.1787C103.569 33.1787 101.78 32.5195 100.488 31.2012C99.1965 29.874 98.5505 28.0503 98.5505 25.73C98.5505 23.4097 99.1921 21.564 100.475 20.1929C101.767 18.8218 103.508 18.1362 105.696 18.1362C107.858 18.1362 109.576 18.791 110.851 20.1006C112.134 21.4102 112.776 23.1636 112.776 25.3608V26.6792H103.086V26.9692C103.086 27.8306 103.345 28.5293 103.863 29.0654C104.391 29.6016 105.076 29.8696 105.92 29.8696C106.544 29.8696 107.085 29.729 107.542 29.4478C107.999 29.1665 108.311 28.7842 108.478 28.3008ZM115.945 32.8359V18.479H120.493V21.2476H120.586C120.867 20.3159 121.377 19.5776 122.115 19.0327C122.853 18.479 123.71 18.2021 124.686 18.2021C125.758 18.2021 126.641 18.4702 127.336 19.0063C128.03 19.5337 128.478 20.2852 128.68 21.2607H128.773C129.054 20.3379 129.594 19.5996 130.394 19.0459C131.203 18.4834 132.139 18.2021 133.202 18.2021C134.608 18.2021 135.747 18.6548 136.617 19.5601C137.487 20.4565 137.922 21.6343 137.922 23.0933V32.8359H133.242V24.2798C133.242 22.7593 132.569 21.999 131.225 21.999C130.592 21.999 130.091 22.21 129.722 22.6318C129.353 23.0537 129.168 23.6162 129.168 24.3193V32.8359H124.699V24.2271C124.699 23.5063 124.527 22.957 124.185 22.5791C123.842 22.1924 123.35 21.999 122.708 21.999C122.075 21.999 121.57 22.2144 121.192 22.645C120.814 23.0757 120.625 23.6426 120.625 24.3457V32.8359H115.945ZM148.263 21.4585C147.551 21.4585 146.949 21.7002 146.457 22.1836C145.974 22.6582 145.701 23.269 145.64 24.0161H150.86C150.816 23.2515 150.557 22.6362 150.083 22.1704C149.608 21.6958 149.001 21.4585 148.263 21.4585ZM150.966 28.3008H155.185C154.956 29.7861 154.227 30.9727 152.996 31.8604C151.766 32.7393 150.214 33.1787 148.342 33.1787C146.057 33.1787 144.269 32.5195 142.977 31.2012C141.685 29.874 141.039 28.0503 141.039 25.73C141.039 23.4097 141.68 21.564 142.963 20.1929C144.255 18.8218 145.996 18.1362 148.184 18.1362C150.346 18.1362 152.064 18.791 153.339 20.1006C154.622 21.4102 155.264 23.1636 155.264 25.3608V26.6792H145.574V26.9692C145.574 27.8306 145.833 28.5293 146.352 29.0654C146.879 29.6016 147.564 29.8696 148.408 29.8696C149.032 29.8696 149.573 29.729 150.03 29.4478C150.487 29.1665 150.799 28.7842 150.966 28.3008Z" fill="white"/>
</svg>
