<svg width="153" height="32" viewBox="0 0 153 32" fill="none" xmlns="http://www.w3.org/2000/svg">
<path d="M14.398 1.7275H19.3184V16.8411C19.3184 18.5381 18.9131 20.0229 18.1025 21.2957C17.2995 22.5684 16.1745 23.5608 14.7275 24.273C13.2805 24.9775 11.5949 25.3298 9.67068 25.3298C7.73886 25.3298 6.04947 24.9775 4.6025 24.273C3.15553 23.5608 2.03053 22.5684 1.22749 21.2957C0.424464 20.0229 0.0229492 18.5381 0.0229492 16.8411V1.7275H4.9434V16.4207C4.9434 17.307 5.13659 18.0949 5.52295 18.7843C5.91689 19.4737 6.46992 20.0154 7.18204 20.4093C7.89416 20.8033 8.72371 21.0002 9.67068 21.0002C10.6252 21.0002 11.4548 20.8033 12.1593 20.4093C12.8714 20.0154 13.4207 19.4737 13.807 18.7843C14.201 18.0949 14.398 17.307 14.398 16.4207V1.7275Z" fill="white"/>
<path d="M23.2758 25.0002V7.54568H28.1167V25.0002H23.2758ZM25.7076 5.29568C24.9879 5.29568 24.3705 5.05704 23.8553 4.57977C23.3478 4.09492 23.094 3.51537 23.094 2.84113C23.094 2.17446 23.3478 1.6025 23.8553 1.12522C24.3705 0.640374 24.9879 0.397949 25.7076 0.397949C26.4273 0.397949 27.0409 0.640374 27.5485 1.12522C28.0637 1.6025 28.3212 2.17446 28.3212 2.84113C28.3212 3.51537 28.0637 4.09492 27.5485 4.57977C27.0409 5.05704 26.4273 5.29568 25.7076 5.29568Z" fill="white"/>
<path d="M38.4264 25.2843C37.1006 25.2843 35.8998 24.9434 34.8241 24.2616C33.7559 23.5722 32.9074 22.5608 32.2786 21.2275C31.6574 19.8866 31.3468 18.2426 31.3468 16.2957C31.3468 14.2957 31.6688 12.6328 32.3127 11.307C32.9567 9.97371 33.8127 8.9775 34.8809 8.31841C35.9567 7.65174 37.1347 7.31841 38.415 7.31841C39.3923 7.31841 40.2067 7.48507 40.8582 7.81841C41.5173 8.14416 42.0476 8.55325 42.4491 9.04568C42.8582 9.53053 43.1688 10.0078 43.3809 10.4775H43.5286V1.7275H48.3582V25.0002H43.5854V22.2048H43.3809C43.1536 22.6896 42.8317 23.1707 42.415 23.648C42.0059 24.1176 41.4718 24.5078 40.8127 24.8184C40.1612 25.129 39.3658 25.2843 38.4264 25.2843ZM39.9604 21.432C40.7408 21.432 41.3998 21.2199 41.9377 20.7957C42.4832 20.3639 42.8998 19.7616 43.1877 18.9889C43.4832 18.2161 43.6309 17.3108 43.6309 16.273C43.6309 15.2351 43.487 14.3336 43.1991 13.5684C42.9112 12.8033 42.4945 12.2123 41.9491 11.7957C41.4036 11.379 40.7408 11.1707 39.9604 11.1707C39.165 11.1707 38.4945 11.3866 37.9491 11.8184C37.4036 12.2502 36.9908 12.8487 36.7104 13.6139C36.4301 14.379 36.29 15.2654 36.29 16.273C36.29 17.2881 36.4301 18.1858 36.7104 18.9661C36.9983 19.7389 37.4112 20.3449 37.9491 20.7843C38.4945 21.2161 39.165 21.432 39.9604 21.432Z" fill="white"/>
<path d="M60.2928 25.3411C58.4974 25.3411 56.9519 24.9775 55.6565 24.2502C54.3686 23.5154 53.3762 22.4775 52.6792 21.1366C51.9822 19.7881 51.6337 18.1934 51.6337 16.3525C51.6337 14.557 51.9822 12.9813 52.6792 11.6252C53.3762 10.2692 54.3572 9.21234 55.6224 8.45477C56.8951 7.69719 58.3875 7.31841 60.0997 7.31841C61.2512 7.31841 62.3231 7.50401 63.3156 7.87522C64.3156 8.23886 65.1868 8.7881 65.9292 9.52295C66.6792 10.2578 67.2625 11.182 67.6792 12.2957C68.0959 13.4017 68.3042 14.6972 68.3042 16.182V17.5116H53.5656V14.5116H63.7474C63.7474 13.8146 63.5959 13.1972 63.2928 12.6593C62.9898 12.1214 62.5694 11.701 62.0315 11.398C61.5012 11.0873 60.8837 10.932 60.1792 10.932C59.4444 10.932 58.7928 11.1025 58.2247 11.4434C57.664 11.7767 57.2247 12.2275 56.9065 12.7957C56.5883 13.3563 56.4254 13.9813 56.4178 14.6707V17.5229C56.4178 18.3866 56.5769 19.1328 56.8951 19.7616C57.2209 20.3904 57.6792 20.8752 58.2701 21.2161C58.861 21.557 59.5618 21.7275 60.3724 21.7275C60.9103 21.7275 61.4027 21.6517 61.8497 21.5002C62.2966 21.3487 62.6792 21.1214 62.9974 20.8184C63.3156 20.5154 63.558 20.1442 63.7247 19.7048L68.2019 20.0002C67.9747 21.076 67.5087 22.0154 66.8042 22.8184C66.1072 23.6139 65.2057 24.2351 64.0997 24.682C63.0012 25.1214 61.7322 25.3411 60.2928 25.3411Z" fill="white"/>
<path d="M85.986 12.523L81.5542 12.7957C81.4784 12.4169 81.3156 12.076 81.0656 11.773C80.8156 11.4623 80.486 11.2161 80.0769 11.0343C79.6754 10.8449 79.1943 10.7502 78.6337 10.7502C77.8837 10.7502 77.2512 10.9093 76.736 11.2275C76.2209 11.5381 75.9633 11.9548 75.9633 12.4775C75.9633 12.8942 76.13 13.2464 76.4633 13.5343C76.7966 13.8222 77.3686 14.0533 78.1792 14.2275L81.3383 14.8639C83.0353 15.2123 84.3004 15.7729 85.1337 16.5457C85.9671 17.3184 86.3837 18.3336 86.3837 19.5911C86.3837 20.7351 86.0466 21.7389 85.3724 22.6025C84.7057 23.4661 83.789 24.1404 82.6224 24.6252C81.4633 25.1025 80.1262 25.3411 78.611 25.3411C76.3004 25.3411 74.4595 24.8601 73.0883 23.898C71.7247 22.9283 70.9254 21.6101 70.6906 19.9434L75.4519 19.6934C75.5959 20.398 75.9444 20.9358 76.4974 21.307C77.0504 21.6707 77.7587 21.8525 78.6224 21.8525C79.4709 21.8525 80.1527 21.6896 80.6678 21.3639C81.1906 21.0305 81.4557 20.6025 81.4633 20.0798C81.4557 19.6404 81.2701 19.2805 80.9065 19.0002C80.5428 18.7123 79.9822 18.4926 79.2247 18.3411L76.2019 17.7389C74.4974 17.398 73.2284 16.807 72.3951 15.9661C71.5694 15.1252 71.1565 14.0533 71.1565 12.7502C71.1565 11.629 71.4595 10.6631 72.0656 9.8525C72.6792 9.04189 73.5391 8.41689 74.6451 7.9775C75.7587 7.5381 77.0618 7.31841 78.5542 7.31841C80.7587 7.31841 82.4936 7.78431 83.7587 8.71613C85.0315 9.64795 85.7739 10.9169 85.986 12.523Z" fill="white"/>
<path d="M89.432 25.0002V7.54568H94.2729V25.0002H89.432ZM91.8639 5.29568C91.1442 5.29568 90.5267 5.05704 90.0116 4.57977C89.504 4.09492 89.2502 3.51537 89.2502 2.84113C89.2502 2.17446 89.504 1.6025 90.0116 1.12522C90.5267 0.640374 91.1442 0.397949 91.8639 0.397949C92.5836 0.397949 93.1972 0.640374 93.7048 1.12522C94.2199 1.6025 94.4775 2.17446 94.4775 2.84113C94.4775 3.51537 94.2199 4.09492 93.7048 4.57977C93.1972 5.05704 92.5836 5.29568 91.8639 5.29568Z" fill="white"/>
<path d="M106.014 31.9093C104.446 31.9093 103.102 31.6934 101.98 31.2616C100.867 30.8373 99.9803 30.2578 99.3212 29.523C98.6622 28.7881 98.2341 27.9623 98.0372 27.0457L102.514 26.4434C102.651 26.7919 102.867 27.1176 103.162 27.4207C103.458 27.7237 103.848 27.9661 104.333 28.148C104.825 28.3373 105.424 28.432 106.128 28.432C107.181 28.432 108.049 28.1745 108.73 27.6593C109.42 27.1517 109.764 26.2995 109.764 25.1025V21.9093H109.56C109.348 22.3942 109.03 22.8525 108.605 23.2843C108.181 23.7161 107.636 24.0684 106.969 24.3411C106.302 24.6139 105.507 24.7502 104.583 24.7502C103.272 24.7502 102.079 24.4472 101.003 23.8411C99.9349 23.2275 99.0826 22.2919 98.4462 21.0343C97.8175 19.7692 97.5031 18.1707 97.5031 16.2389C97.5031 14.2616 97.825 12.6101 98.469 11.2843C99.1129 9.95856 99.969 8.96613 101.037 8.30704C102.113 7.64795 103.291 7.31841 104.571 7.31841C105.549 7.31841 106.367 7.48507 107.026 7.81841C107.685 8.14416 108.215 8.55325 108.617 9.04568C109.026 9.53053 109.34 10.0078 109.56 10.4775H109.742V7.54568H114.549V25.1707C114.549 26.6555 114.185 27.898 113.458 28.898C112.73 29.898 111.723 30.648 110.435 31.148C109.155 31.6555 107.681 31.9093 106.014 31.9093ZM106.117 21.1139C106.897 21.1139 107.556 20.9207 108.094 20.5343C108.639 20.1404 109.056 19.5798 109.344 18.8525C109.639 18.1176 109.787 17.2389 109.787 16.2161C109.787 15.1934 109.643 14.307 109.355 13.557C109.067 12.7995 108.651 12.2123 108.105 11.7957C107.56 11.379 106.897 11.1707 106.117 11.1707C105.321 11.1707 104.651 11.3866 104.105 11.8184C103.56 12.2426 103.147 12.8336 102.867 13.5911C102.586 14.3487 102.446 15.2237 102.446 16.2161C102.446 17.2237 102.586 18.0949 102.867 18.8298C103.155 19.557 103.567 20.1214 104.105 20.5229C104.651 20.9169 105.321 21.1139 106.117 21.1139Z" fill="white"/>
<path d="M123.242 14.9093V25.0002H118.401V7.54568H123.014V10.6252H123.219C123.605 9.61007 124.253 8.80704 125.162 8.21613C126.071 7.61765 127.174 7.31841 128.469 7.31841C129.681 7.31841 130.738 7.58356 131.639 8.11386C132.541 8.64416 133.242 9.40174 133.742 10.3866C134.242 11.3639 134.492 12.5305 134.492 13.8866V25.0002H129.651V14.7502C129.658 13.682 129.386 12.8487 128.833 12.2502C128.28 11.6442 127.518 11.3411 126.549 11.3411C125.897 11.3411 125.321 11.4813 124.821 11.7616C124.329 12.0419 123.942 12.451 123.662 12.9889C123.389 13.5192 123.249 14.1593 123.242 14.9093Z" fill="white"/>
<path d="M138.216 25.0002V22.1139L146.762 11.5343V11.4093H138.512V7.54568H152.591V10.6934L144.568 21.0116V21.1366H152.887V25.0002H138.216Z" fill="white"/>
</svg>
