<svg width="156" height="44" viewBox="0 0 156 44" fill="none" xmlns="http://www.w3.org/2000/svg">
<path d="M61.6321 0.901855C55.1907 0.901855 47.3086 6.41088 47.3086 17.3866C47.3086 28.9979 51.7158 33.956 55.8688 33.956C58.4114 33.956 60.5726 32.8966 61.7592 30.4387C62.7762 32.7271 64.3442 34.0831 67.0563 34.0831C72.5654 34.0831 76.9302 28.7012 76.9302 18.2341C76.9302 6.41088 68.8786 0.901855 61.6321 0.901855ZM66.4631 32.7271C63.6662 32.7271 62.522 27.5571 66.4207 26.4976C65.1917 24.3788 62.9881 25.6925 62.7339 26.3281V10.691C62.7339 6.91941 57.8181 7.89408 57.8181 8.48736C57.8181 9.08064 58.6233 9.03826 58.6233 10.5638V25.523C58.6233 25.523 58.6657 32.2609 55.6993 32.2609C52.5634 32.2609 49.0884 27.4723 49.0884 17.3866C49.0884 6.32613 56.7163 2.59694 61.6321 2.59694C68.4548 2.59694 72.7772 9.92818 72.7772 18.4036C72.7772 27.6418 69.8532 32.7271 66.4631 32.7271Z" fill="white"/>
<path d="M85.0397 18.0222C81.2258 18.0222 78.3865 21.37 78.2594 25.8196C78.1322 30.2268 81.2681 33.7017 85.0821 33.9984C87.2857 34.1255 88.557 33.278 89.7012 31.9643C91.9895 29.3793 88.6841 28.2775 88.3875 30.5235C88.1756 32.1762 86.65 33.0237 85.5482 32.6847C83.7684 32.0914 82.6666 29.5488 82.4123 26.9638L91.142 26.3281C91.2268 22.2599 89.1079 18.0222 85.0397 18.0222ZM87.2009 25.523L82.2428 25.9044C82.0733 22.3447 82.6242 19.2935 84.3617 19.2088C86.2263 19.124 87.2009 23.3617 87.2009 25.523Z" fill="white"/>
<path d="M93.2972 31.9643C95.6279 35.6935 103.722 34.4222 103.722 29.8031C103.722 26.7943 101.179 25.9891 98.7215 24.5059C95.1618 22.3871 94.9923 18.9121 97.8315 18.9121C98.5519 18.9121 99.2724 19.463 98.7638 20.9039C98.0858 22.6413 99.5266 23.955 100.967 23.955C102.239 23.955 103.298 22.938 103.298 21.6243C103.298 19.7173 101.434 17.9798 97.9587 17.9798C93.2972 17.9798 90.5003 22.6413 94.0176 25.9044C95.416 27.1757 98.1282 28.4894 99.2724 29.6759C101.857 32.3033 95.1618 34.8036 94.9923 30.4811C94.9075 28.2351 91.4326 28.9979 93.2972 31.9643Z" fill="white"/>
<path d="M107.948 17.0899C109.092 17.0899 110.024 16.1576 110.024 15.0134C110.024 13.8693 109.092 12.937 107.948 12.937C106.804 12.937 105.871 13.8693 105.871 15.0134C105.871 16.1576 106.804 17.0899 107.948 17.0899ZM110.024 31.2863V20.9886C110.024 17.217 105.109 18.1917 105.109 18.785C105.109 19.3783 105.871 19.2935 105.871 20.8191V31.1167C105.871 34.9307 110.83 33.956 110.83 33.3627C110.83 32.7271 110.024 32.8118 110.024 31.2863Z" fill="white"/>
<path d="M118.793 32.0914C122.607 32.1762 125.785 29.125 125.912 25.2687C125.997 22.5566 124.556 20.1411 122.395 18.9545C124.132 18.5731 125.065 17.4713 125.065 16.3271C125.065 15.3525 124.302 14.5897 123.327 14.5897C122.225 14.5897 121.208 15.5643 121.674 16.878C122.183 18.3612 121.335 18.107 119.259 18.0646C115.445 17.9798 112.224 21.031 112.14 24.8873C112.097 26.7519 112.733 28.447 113.792 29.7183C112.436 31.2863 112.733 34.2527 115.869 35.4816C119.683 36.9648 123.666 39.4227 121.547 41.6263C120.064 43.1942 116.462 42.1772 117.013 39.9312C117.437 38.1513 116.081 36.88 114.809 36.88C113.538 36.88 112.436 37.9395 112.479 39.2108C112.648 44.1265 125.531 45.2283 125.531 38.1937C125.531 33.3627 119.428 33.7865 116.716 33.0237C115.106 32.5576 113.453 31.7948 114.555 30.4811C115.699 31.4558 117.182 32.049 118.793 32.0914ZM118.539 19.3359C120.064 19.2088 121.505 21.7514 121.759 24.9297C122.013 28.0656 121.039 30.7354 119.513 30.8201C117.988 30.9049 116.547 28.447 116.293 25.2687C116.038 22.0904 117.013 19.463 118.539 19.3359Z" fill="white"/>
<path d="M142.026 24.8873C142.026 17.5561 134.568 16.539 132.279 20.2682C131.305 17.3866 127.406 18.3189 127.406 18.8274C127.406 19.4207 128.211 19.3359 128.211 20.8615V31.5405C128.211 34.9731 132.322 33.7441 132.322 33.7441V24.1245C132.322 19.463 137.873 17.8951 137.873 25.9891V31.5405C137.873 34.9731 142.026 33.7441 142.026 33.7441V24.8873Z" fill="white"/>
<path d="M147.652 32.5999L156 18.1493C153.924 18.1493 143.541 16.1576 143.541 20.8191C143.541 22.1328 144.558 23.1498 145.872 23.1498C147.143 23.1498 148.669 21.8362 148.076 20.0987C147.228 17.5561 152.228 18.3612 151.678 19.3359C151.042 20.4801 146.592 27.8537 144.346 31.6676C143.668 32.7695 143.711 33.956 146.296 33.956H154.686C154.686 33.7017 155.28 29.6759 155.28 29.6759C155.28 29.6759 152.652 32.5999 147.652 32.5999Z" fill="white"/>
<path fill-rule="evenodd" clip-rule="evenodd" d="M10 0C4.47715 0 0 4.47716 0 10V27.8689C0 33.3918 4.47716 37.8689 10 37.8689H27.8689C33.3918 37.8689 37.8689 33.3918 37.8689 27.8689V10C37.8689 4.47715 33.3918 0 27.8689 0H10ZM14.7366 30.6559C8.65787 30.6559 6.31063 26.4459 6.31063 20.873V7.21327H10.7343V19.9947C10.7343 22.8114 10.975 26.7791 14.7366 26.7791C18.4982 26.7791 18.739 22.8114 18.739 19.9947V7.21327H23.1626V20.873C23.1626 26.4459 20.8154 30.6559 14.7366 30.6559ZM27.1329 7.21327H31.5566V30.0502H27.1329V7.21327Z" fill="white"/>
</svg>
