<svg width="101" height="100" viewBox="0 0 101 100" fill="none" xmlns="http://www.w3.org/2000/svg">
<path fill-rule="evenodd" clip-rule="evenodd" d="M26.4744 0C11.853 0 0 11.8034 0 26.3636V73.4726C0 88.0329 11.853 99.8362 26.4744 99.8362H73.7811C88.4027 99.8362 100.255 88.0329 100.255 73.4726V26.3636C100.255 11.8034 88.4027 0 73.7811 0H26.4744ZM39.0142 80.8201C22.9212 80.8201 16.707 69.721 16.707 55.0288V19.0168H28.4184V52.7133C28.4184 60.1391 29.0556 70.5994 39.0142 70.5994C48.9728 70.5994 49.6103 60.1391 49.6103 52.7133V19.0168H61.3215V55.0288C61.3215 69.721 55.1074 80.8201 39.0142 80.8201ZM71.8326 19.0168H83.5441V79.2233H71.8326V19.0168Z" fill="white"/>
</svg>
