<svg width="86" height="45" viewBox="0 0 86 45" fill="none" xmlns="http://www.w3.org/2000/svg">
<path d="M58.2227 12.0901C55.7878 12.0885 53.4419 12.9999 51.6533 14.6424V0H46.2671V31.2562H51.6533V28.8491C52.8162 29.9119 54.2224 30.6767 55.7498 31.0769C57.2773 31.4772 58.8799 31.501 60.4187 31.1462C61.9574 30.7914 63.3859 30.0687 64.5802 29.0409C65.7744 28.013 66.6984 26.711 67.272 25.2479C67.8455 23.7847 68.0513 22.2044 67.8715 20.6443C67.6917 19.0841 67.1318 17.5911 66.2402 16.2948C65.3487 14.9985 64.1524 13.938 62.7553 13.2052C61.3581 12.4725 59.8023 12.0898 58.2227 12.0901ZM58.2227 26.0497C57.3668 26.0497 56.5301 25.7974 55.8185 25.3247C55.1069 24.8519 54.5522 24.1801 54.2247 23.394C53.8972 22.6079 53.8115 21.7429 53.9784 20.9084C54.1454 20.0739 54.5576 19.3073 55.1627 18.7057C55.7679 18.1041 56.539 17.6943 57.3784 17.5283C58.2179 17.3623 59.088 17.4475 59.8787 17.7731C60.6694 18.0988 61.3452 18.6502 61.8207 19.3576C62.2962 20.0651 62.55 20.8968 62.55 21.7477C62.5483 22.8879 62.0917 23.9809 61.2805 24.7871C60.4693 25.5932 59.3696 26.0465 58.2227 26.0478V26.0497Z" fill="#725BA7"/>
<path d="M76.4686 0H71.0833V31.2562H76.4686V0Z" fill="#725BA7"/>
<path d="M32.915 23.3333L26.673 12.9004H20.6131L29.47 29.9725L21.9149 44.5358H27.9747L44.3866 12.9004H38.3268L32.915 23.3333Z" fill="#725BA7"/>
<path d="M16.3133 15.3221C15.2636 14.3258 13.9947 13.5865 12.6074 13.1631C11.7024 12.874 10.7549 12.7382 9.80466 12.7613C7.98016 12.8254 6.4754 13.5583 5.38526 14.3147V12.8999H0V31.3869H5.38526V21.8076H5.39095C5.42854 20.6585 5.92334 19.5713 6.76668 18.7846C7.58856 18.0234 8.68007 17.6165 9.80276 17.6528C10.3458 17.6788 10.8789 17.8068 11.3739 18.03C11.869 18.2516 12.316 18.5668 12.6899 18.9582C13.0479 19.3353 13.324 19.7815 13.5011 20.2692C13.6842 20.7706 13.7711 21.3017 13.7573 21.835V31.3859H19.1425V21.7803C19.1105 20.5794 18.8507 19.3954 18.3769 18.2904C17.8981 17.1723 17.1961 16.1625 16.3133 15.3221Z" fill="#725BA7"/>
<path d="M86 25.9023H80.6147V31.256H86V25.9023Z" fill="#725BA7"/>
</svg>
