<svg width="91" height="33" viewBox="0 0 91 33" fill="none" xmlns="http://www.w3.org/2000/svg">
<path d="M22.8074 0.688743C23.028 0.888326 23.2028 1.13336 23.3197 1.40748C23.4367 1.6816 23.493 1.97816 23.4847 2.27627V25.6374C23.5074 25.9709 23.4587 26.305 23.3419 26.6181C23.2252 26.9311 23.043 27.2156 22.8077 27.452C22.5724 27.6883 22.2895 27.8712 21.9779 27.9885C21.6663 28.1058 21.3333 28.1547 21.0014 28.1319C20.6112 28.1672 20.2192 28.0888 19.8725 27.9055C19.421 27.9055 19.1953 27.6788 19.1953 27.452L4.52069 8.62695V25.8639C4.52069 26.4654 4.2828 27.0427 3.85941 27.468C3.43602 27.8934 2.86182 28.1319 2.26306 28.1319C1.6643 28.1319 1.09009 27.8934 0.666705 27.468C0.243317 27.0427 0.0054277 26.4654 0.0054277 25.8639V2.5033C-0.0172733 2.16979 0.0314099 1.83513 0.148183 1.5221C0.264956 1.20907 0.44712 0.92457 0.682413 0.68819C0.917707 0.451809 1.20062 0.268942 1.51221 0.151629C1.82381 0.0343167 2.15678 -0.0145914 2.48877 0.00821448C2.87893 -0.0270856 3.27094 0.0518995 3.61758 0.235242C3.9573 0.404958 4.26339 0.6351 4.52069 0.915217L18.9694 19.5138V2.27627C18.9838 1.67928 19.2262 1.11045 19.6466 0.68819C20.0669 0.265925 20.6328 0.0226062 21.2271 0.00821448C21.9044 0.235021 22.3559 0.235131 22.8074 0.688743Z" fill="#3333CC"/>
<path d="M70.669 7.49293C71.1213 7.98603 71.3643 8.63713 71.3462 9.30749V19.5138C71.4447 20.7421 71.2955 21.9776 70.9076 23.1468C70.5197 24.3159 69.901 25.3946 69.0886 26.3179C67.1961 27.9287 64.7961 28.8125 62.3157 28.8125C59.8353 28.8125 57.4353 27.9287 55.5428 26.3179C54.7304 25.3946 54.1117 24.3159 53.7238 23.1468C53.3359 21.9776 53.1867 20.7421 53.2852 19.5138V9.30749C53.2852 8.64581 53.5469 8.01119 54.0126 7.54332C54.4783 7.07544 55.11 6.8124 55.7687 6.8124C56.4273 6.8124 57.0588 7.07544 57.5246 7.54332C57.9903 8.01119 58.252 8.64581 58.252 9.30749V19.5138C58.171 20.8217 58.5729 22.1134 59.3808 23.1423C60.2724 23.8757 61.3892 24.2764 62.5415 24.2764C63.6938 24.2764 64.8105 23.8757 65.7021 23.1423C66.51 22.1134 66.912 20.8217 66.831 19.5138V9.30749C66.8083 8.97397 66.8569 8.63932 66.9737 8.32628C67.0905 8.01325 67.2726 7.72875 67.5079 7.49237C67.7432 7.25599 68.0263 7.07313 68.3379 6.95581C68.6495 6.8385 68.9825 6.78959 69.3144 6.8124C69.5739 6.82949 69.8274 6.89822 70.06 7.01506C70.2927 7.1319 70.4996 7.29461 70.669 7.49293Z" fill="#3333CC"/>
<path d="M73.8297 23.8231C73.8585 23.4517 73.9761 23.093 74.1727 22.7771C74.3692 22.4612 74.6388 22.1973 74.9585 22.0085C75.41 21.7817 75.6358 21.555 76.0873 21.555C76.6789 21.5815 77.2405 21.8235 77.6676 22.2355C78.3811 22.9842 79.2222 23.5988 80.151 24.0501C81.1314 24.5387 82.218 24.7722 83.3116 24.7301C85.3435 24.7301 86.4724 23.8228 86.4724 22.462C86.4435 22.0906 86.3258 21.7319 86.1293 21.416C85.9327 21.1001 85.6632 20.8368 85.3436 20.648C84.3759 20.0618 83.3012 19.6762 82.1828 19.514C80.8794 19.1321 79.5982 18.6775 78.345 18.1529C77.3721 17.6731 76.5223 16.9748 75.8615 16.1119C75.1288 15.1304 74.7327 13.9366 74.7327 12.7098C74.7327 11.4829 75.1288 10.2892 75.8615 9.3077C76.58 8.26234 77.6063 7.46922 78.7964 7.03964C80.0224 6.57504 81.3241 6.34418 82.6344 6.35911C84.0167 6.36349 85.3891 6.59339 86.6981 7.03964C87.9507 7.46704 89.0501 8.25594 89.8588 9.3077C90.0303 9.48637 90.1599 9.70127 90.238 9.93673C90.3161 10.1722 90.3408 10.4219 90.3104 10.6682C90.3186 10.9663 90.2624 11.2629 90.1454 11.537C90.0285 11.8111 89.8537 12.0562 89.6331 12.2557C89.2212 12.5072 88.7582 12.6627 88.2784 12.7098C87.7855 12.7404 87.3 12.5774 86.9239 12.2557C86.4237 11.6798 85.8083 11.2164 85.1178 10.8952C84.3187 10.6147 83.4807 10.4618 82.6344 10.4417C80.6025 10.4417 79.6995 11.1221 79.6995 12.7098C79.669 13.205 79.8309 13.6925 80.151 14.0703C80.5471 14.4489 81.0053 14.7562 81.5056 14.9778C82.3165 15.2629 83.1464 15.4898 83.989 15.6578C85.3436 16.1114 86.6981 16.565 87.6012 16.7919C88.574 17.2718 89.4237 17.9705 90.0845 18.8334C90.751 19.8363 91.0685 21.0325 90.9876 22.2355C90.9948 23.4635 90.5979 24.6595 89.8588 25.6376C89.0897 26.6334 88.0792 27.4143 86.9239 27.9057C85.7706 28.3497 84.5467 28.5803 83.3116 28.5862C81.6111 28.6366 79.919 28.3272 78.345 27.6787C76.8688 27.0906 75.6078 26.0613 74.7327 24.7301C74.6111 24.7421 74.4884 24.7271 74.3734 24.6858C74.2585 24.6444 74.154 24.5776 74.0677 24.4909C73.9813 24.4041 73.9152 24.2996 73.8741 24.1841C73.8329 24.0686 73.8178 23.9452 73.8297 23.8231Z" fill="#3333CC"/>
<path d="M46.9643 26.5446C46.574 26.5808 46.1818 26.5024 45.8354 26.3181C45.62 26.1758 45.4361 25.9898 45.2954 25.7727C45.1547 25.5556 45.0603 25.3118 45.0179 25.0562C44.9755 24.8007 44.986 24.5389 45.049 24.2876C45.112 24.0364 45.226 23.8009 45.3839 23.596C45.7426 23.1346 45.9759 22.5877 46.0611 22.0085C46.3147 21.5145 46.4682 20.975 46.5127 20.421C46.5127 19.9674 46.7385 19.2868 46.7385 18.6064C46.7752 17.9928 46.6986 17.3775 46.5127 16.7918C46.4682 16.2378 46.3147 15.6983 46.0611 15.2043L45.3839 13.8438C45.0754 13.3375 44.6952 12.8788 44.2551 12.4828C43.8035 12.0291 43.3521 11.8023 42.9005 11.3487C42.4001 11.1274 41.9417 10.8207 41.5459 10.4417C41.0541 10.1871 40.5171 10.0325 39.9657 9.98766C38.8483 9.75898 37.6966 9.75898 36.5792 9.98766C36.1277 10.2145 35.4504 10.2149 34.9988 10.4417C34.499 10.664 34.0407 10.9707 33.6442 11.3487C33.1394 11.6574 32.683 12.0396 32.2897 12.4828C31.8381 12.9364 31.6124 13.3902 31.1608 13.8438C30.9351 14.2974 30.4836 14.7507 30.4836 15.2043C30.2301 15.6983 30.0766 16.2378 30.032 16.7918C30.032 17.2455 29.8063 17.926 29.8063 18.6064C29.7697 19.22 29.8462 19.8353 30.032 20.421C30.0766 20.975 30.2301 21.5145 30.4836 22.0085C30.7507 22.5189 30.9771 23.0497 31.1608 23.596C31.4602 24.0171 31.5808 24.5408 31.4961 25.0512C31.4114 25.5616 31.1284 26.0174 30.7093 26.3181C30.2902 26.6189 29.7693 26.7399 29.2612 26.6548C28.7531 26.5697 28.2995 26.2852 28.0001 25.8641C27.54 25.234 27.1607 24.5484 26.8713 23.8231C26.6455 23.1426 26.4198 22.2354 26.194 21.555C25.8934 19.9055 25.8934 18.2149 26.194 16.5654C26.4198 15.6581 26.6455 14.9777 26.8713 14.2973C27.1592 13.5712 27.5385 12.8849 28.0001 12.2557C28.4015 11.5513 28.9388 10.9349 29.5805 10.4417C30.2578 9.98811 30.7093 9.30725 31.3866 8.85363C32.0132 8.39055 32.696 8.00948 33.4185 7.7196C34.0958 7.4928 34.9988 7.26644 35.6761 7.03963C37.3012 6.58837 39.0178 6.58837 40.6429 7.03963C41.546 7.26644 42.2233 7.4928 42.9005 7.7196C43.623 8.00944 44.3057 8.39051 44.9323 8.85363C45.6338 9.25644 46.248 9.7967 46.7385 10.4417C47.3206 10.9956 47.8496 11.6026 48.3188 12.2557C48.7796 12.8854 49.1589 13.5716 49.4476 14.2973C49.6734 14.9777 49.8992 15.885 50.125 16.5654C50.3118 17.383 50.3877 18.2219 50.3507 19.0599C50.3983 19.8982 50.3223 20.7391 50.125 21.555C49.8992 22.4622 49.6734 23.1426 49.4476 23.8231C49.1594 24.549 48.78 25.2347 48.3188 25.8641C48.3188 26.0909 47.6415 26.5446 46.9643 26.5446Z" fill="#3333CC"/>
<path d="M43.8033 25.6378C43.6521 25.4873 43.5017 25.3362 43.3519 25.1843C43.1261 24.9575 43.1261 24.9572 42.9004 24.9572C42.6215 24.6988 42.3919 24.3916 42.2231 24.0502C42.0939 23.9328 42.0133 23.7705 41.9972 23.5962C41.9972 23.5664 41.9914 23.5373 41.98 23.5098C41.9687 23.4823 41.9521 23.4572 41.9311 23.4361C41.9101 23.4151 41.8853 23.3983 41.8579 23.3869C41.8305 23.3755 41.8012 23.3697 41.7715 23.3697V22.9162C41.7715 22.6894 41.9972 22.689 41.9972 22.4621L42.4488 22.0086C42.7234 21.6623 42.9511 21.281 43.1261 20.8746C43.336 20.5233 43.4885 20.1404 43.5776 19.7406C43.7615 19.312 43.8389 18.8454 43.8033 18.3801V17.926C43.784 16.4884 43.2071 15.1153 42.1951 14.0987C41.1831 13.082 39.8161 12.5023 38.3851 12.4829C37.6419 12.4756 36.9047 12.6175 36.2166 12.8999C35.5286 13.1822 34.9036 13.5995 34.378 14.1275C33.8525 14.6554 33.437 15.2835 33.1559 15.9747C32.8748 16.6659 32.7338 17.4064 32.741 18.1531C32.7509 19.1011 32.9829 20.0334 33.4183 20.8746C33.644 21.1014 33.6441 21.3283 33.8698 21.5551L34.0955 21.7822C34.3783 22.0925 34.5388 22.4956 34.5471 22.9162V23.5962C34.5471 24.0498 34.3213 24.2766 34.0955 24.7302C33.8698 24.957 33.644 25.411 33.4183 25.6378L32.9667 26.0913L32.741 26.3183C32.5677 26.3348 32.4067 26.4154 32.2895 26.5448C32.059 26.6067 31.8443 26.7172 31.6595 26.8687C31.4746 27.0202 31.3238 27.2092 31.2172 27.4235C31.1105 27.6379 31.0502 27.8729 31.0405 28.1124C31.0308 28.3518 31.0717 28.5904 31.1607 28.8128C31.2981 29.2359 31.5733 29.6003 31.9418 29.8472C32.3104 30.094 32.751 30.2091 33.1926 30.1739C33.4399 30.1333 33.6753 30.0389 33.8827 29.8976C34.09 29.7562 34.2643 29.5708 34.3932 29.3549C34.5221 29.1391 34.6026 28.8976 34.6292 28.6473C34.6558 28.3969 34.6278 28.1442 34.5471 27.9058V26.3183C34.5554 25.8977 34.716 25.4946 34.9987 25.1843C35.2244 24.9575 35.4502 24.5035 35.6759 24.2767L36.1275 23.8232H36.3532C36.5789 23.8232 36.579 23.8234 36.8047 24.0502V24.2767C36.8047 24.7303 37.0305 24.9571 36.8047 25.4107C36.8399 25.8027 36.7615 26.1965 36.579 26.5448C36.579 26.7716 36.3532 26.7715 36.3532 26.9983C36.3532 27.0584 36.3294 27.1163 36.287 27.1588C36.2447 27.2014 36.1873 27.2253 36.1275 27.2253L35.9016 27.4523C35.7419 27.5945 35.6141 27.769 35.5265 27.9645C35.439 28.16 35.3937 28.372 35.3937 28.5864C35.3937 28.8007 35.439 29.0121 35.5265 29.2076C35.6141 29.4031 35.7419 29.5782 35.9016 29.7204C36.1541 29.9187 36.4555 30.0442 36.7736 30.0842C37.0916 30.1241 37.4145 30.0767 37.7078 29.9469C37.8827 29.8215 38.0289 29.6601 38.1367 29.4734C38.2444 29.2867 38.3112 29.0791 38.3326 28.8643C38.354 28.6496 38.3293 28.4325 38.2605 28.2281C38.1917 28.0236 38.0803 27.8364 37.9335 27.6788L37.7078 27.4523C37.7078 27.3922 37.684 27.3343 37.6417 27.2917C37.5994 27.2492 37.5419 27.2253 37.482 27.2253C37.4583 27.0533 37.379 26.894 37.2563 26.7718C37.2563 26.3182 37.0305 26.0914 37.2563 25.6378C37.2465 25.3202 37.3246 25.0058 37.482 24.7302V24.5037C37.482 24.2769 37.7078 24.2767 37.9335 24.2767C38.1593 24.2767 38.1593 24.2769 38.1593 24.5037L38.3851 24.7302V24.9572C38.6109 25.4108 39.0623 26.0912 39.2881 26.5448C39.5138 26.7716 39.5139 26.9987 39.7396 27.4523C39.7396 27.6791 39.9655 27.9057 39.9655 28.3593V30.4004C39.8616 30.6371 39.8086 30.8936 39.81 31.1523C39.8115 31.411 39.8674 31.6665 39.974 31.9021C40.0806 32.1376 40.2354 32.3477 40.4285 32.5189C40.6215 32.6901 40.8484 32.8184 41.0943 32.8954C41.5162 33.044 41.9772 33.034 42.3923 32.8672C42.8074 32.7004 43.1484 32.3883 43.3519 31.9884C43.5543 31.5018 43.5742 30.9578 43.4081 30.4574C43.2421 29.957 42.9014 29.5337 42.4488 29.2663C42.3889 29.2663 42.3314 29.2424 42.2891 29.1999C42.2468 29.1573 42.2231 29.1 42.2231 29.0399L41.7715 28.5864C41.5458 28.3595 41.32 28.1326 41.32 27.9058C41.0942 27.679 41.0943 27.4519 41.0943 26.9983C41.0943 26.7715 40.8684 26.5449 40.8684 26.0913C40.6832 25.5838 40.6064 25.043 40.6427 24.5037C40.6507 24.386 40.7008 24.2748 40.7838 24.1914C40.8669 24.108 40.9771 24.0582 41.0943 24.0502C41.32 24.0502 41.32 24.0499 41.32 24.2767C41.32 24.3369 41.3438 24.3947 41.3861 24.4373C41.4285 24.4798 41.4858 24.5037 41.5457 24.5037C41.7836 24.7536 41.941 25.0696 41.9972 25.4107C41.9972 25.6375 41.9973 25.8642 42.2231 25.8642V26.3183C42.1843 26.6165 42.2544 26.9186 42.4204 27.1688C42.5865 27.419 42.8371 27.6001 43.1261 27.6788C43.3057 27.7384 43.4968 27.7544 43.6839 27.7259C43.8709 27.6973 44.0487 27.6248 44.2027 27.5143C44.3566 27.4039 44.4825 27.2587 44.57 27.0902C44.6576 26.9217 44.7042 26.7348 44.7064 26.5448C44.9322 26.318 44.4806 25.8646 43.8033 25.6378Z" fill="#3333CC"/>
</svg>
