<svg width="194" height="37" viewBox="0 0 194 37" fill="none" xmlns="http://www.w3.org/2000/svg">
<path d="M0.536947 16.8869L16.0378 0.676447C16.2915 0.411072 16.4184 0.278385 16.5761 0.278385C16.7338 0.278385 16.8606 0.411072 17.1144 0.676447L32.6152 16.8869C32.869 17.1523 32.9959 17.285 32.9959 17.4499C32.9959 17.6148 32.869 17.7474 32.6152 18.0128L17.1144 34.2233C16.8606 34.4887 16.7338 34.6214 16.5761 34.6214C16.4184 34.6214 16.2916 34.4887 16.0378 34.2233L0.536947 18.0128C0.28319 17.7474 0.156311 17.6148 0.156311 17.4499C0.156311 17.285 0.28319 17.1523 0.536947 16.8869Z" fill="url(#paint0_linear_1_23)"/>
<path opacity="0.5" d="M32.9963 17.4501C32.9963 17.6149 32.8694 17.7476 32.6157 18.013L22.9899 28.0795L20.0246 19.0832C19.7709 18.3134 19.644 17.9284 19.644 17.4501H32.9963Z" fill="url(#paint1_linear_1_23)"/>
<path d="M20.0246 16.8869L35.5255 0.676447C35.7792 0.411072 35.9061 0.278385 36.0638 0.278385C36.2214 0.278385 36.3483 0.411072 36.6021 0.676447L52.1029 16.8869C52.3567 17.1523 52.4835 17.285 52.4835 17.4499C52.4835 17.6148 52.3567 17.7474 52.1029 18.0128L36.6021 34.2233C36.3483 34.4887 36.2214 34.6214 36.0638 34.6214C35.9061 34.6214 35.7792 34.4887 35.5255 34.2233L20.0246 18.0128C19.7709 17.7474 19.644 17.6148 19.644 17.4499C19.644 17.285 19.7709 17.1523 20.0246 16.8869Z" fill="url(#paint2_linear_1_23)"/>
<path opacity="0.35" d="M52.4837 17.4501C52.4837 17.6149 52.3568 17.7476 52.1031 18.013L42.6112 27.9394L39.6922 19.0832C39.4384 18.3134 39.3115 17.9284 39.3115 17.4501H52.4837Z" fill="url(#paint3_linear_1_23)"/>
<path d="M39.6922 16.8869L55.193 0.676447C55.4468 0.411072 55.5736 0.278385 55.7313 0.278385C55.889 0.278385 56.0158 0.411072 56.2696 0.676447L71.7704 16.8869C72.0242 17.1523 72.1511 17.285 72.1511 17.4499C72.1511 17.6148 72.0242 17.7474 71.7704 18.0128L56.2696 34.2233C56.0158 34.4887 55.889 34.6214 55.7313 34.6214C55.5736 34.6214 55.4468 34.4887 55.193 34.2233L39.6922 18.0128C39.4384 17.7474 39.3115 17.6148 39.3115 17.4499C39.3115 17.285 39.4384 17.1523 39.6922 16.8869Z" fill="url(#paint4_linear_1_23)"/>
<path d="M93.7465 9.53521C93.4428 11.811 92.0258 13.2577 89.8833 13.2577C87.5047 13.2577 86.1552 11.6522 86.1552 8.97067C86.1552 6.23618 87.5891 4.54256 89.9508 4.54256C91.8402 4.54256 93.1223 5.79513 93.5947 7.84159L95.9564 7.22413C95.366 4.3485 93.291 2.24911 89.9171 2.24911C86.0371 2.24911 83.5404 4.93068 83.5404 9.07652C83.5404 12.799 85.8009 15.5511 89.7484 15.5511C93.5947 15.5511 95.7034 13.1518 96.1757 9.85277L93.7465 9.53521Z" fill="#0D2750"/>
<path d="M100.006 15.3394V2.46082H97.476V15.3394H100.006Z" fill="#0D2750"/>
<path d="M106.25 13.5928C104.58 13.5928 103.922 12.552 103.804 11.1053H110.939C110.939 7.59461 109.033 5.74221 106.165 5.74221C103.213 5.74221 101.307 7.80631 101.307 10.7878C101.307 13.6458 103.129 15.5687 106.098 15.5687C108.274 15.5687 110.163 14.6161 110.922 12.3932L108.864 11.7228C108.527 13.0283 107.481 13.6105 106.25 13.6105V13.5928ZM106.165 7.64753C107.296 7.64753 108.072 8.22971 108.341 9.51757H103.888C104.175 8.21207 105.018 7.64753 106.148 7.64753H106.165Z" fill="#0D2750"/>
<path d="M121.44 13.4517C120.883 13.4517 120.664 13.0812 120.664 12.3932V9.09417C120.664 7.1712 119.23 5.74221 116.531 5.74221C114.372 5.74221 112.668 6.6243 111.858 8.9001L113.899 9.69399C114.422 8.17679 115.299 7.55932 116.43 7.55932C117.543 7.55932 118.167 8.05329 118.167 9.14709V9.27058L114.085 10.4173C112.533 10.8584 111.673 11.6699 111.673 13.0283C111.673 14.2456 112.651 15.5511 114.608 15.5511C116.278 15.5511 117.509 14.6161 118.167 13.2047H118.218V13.3988C118.218 14.7925 119.196 15.5158 120.462 15.5158C121.052 15.5158 121.845 15.3394 122.267 15.1453V13.2224C122.03 13.3635 121.676 13.4517 121.423 13.4517H121.44ZM115.316 13.5576C114.49 13.5576 114.135 13.0812 114.135 12.6402C114.135 12.1286 114.574 11.9522 115.215 11.7228L118.15 10.6819V11.5993C117.729 12.7813 116.345 13.5576 115.333 13.5576H115.316Z" fill="#0D2750"/>
<path d="M128.879 5.83042C128.406 5.83042 127.917 5.91863 127.563 6.0774C126.416 6.58902 125.91 7.43583 125.522 9.21766L125.488 9.2353V5.93627H123.025V15.3394H125.555V12.2873C125.555 9.88805 126.837 8.08858 128.912 8.08858C129.216 8.08858 129.503 8.1415 129.722 8.19443V5.93627C129.469 5.8657 129.182 5.83042 128.879 5.83042Z" fill="#0D2750"/>
<path d="M143.856 7.66517H137.48V2.46082H134.949V15.3394H137.48V9.94098H143.856V15.3394H146.387V2.46082H143.856V7.66517Z" fill="#0D2750"/>
<path d="M152.812 13.5928C151.142 13.5928 150.484 12.552 150.366 11.1053H157.502C157.502 7.59461 155.596 5.74221 152.728 5.74221C149.776 5.74221 147.87 7.80631 147.87 10.7878C147.87 13.6458 149.691 15.5687 152.66 15.5687C154.837 15.5687 156.726 14.6161 157.485 12.3932L155.427 11.7228C155.09 13.0283 154.044 13.6105 152.812 13.6105V13.5928ZM152.728 7.64753C153.858 7.64753 154.634 8.22971 154.904 9.51757H150.451C150.737 8.21207 151.581 7.64753 152.711 7.64753H152.728Z" fill="#0D2750"/>
<path d="M168.003 13.4517C167.446 13.4517 167.227 13.0812 167.227 12.3932V9.09417C167.227 7.1712 165.793 5.74221 163.094 5.74221C160.934 5.74221 159.231 6.6243 158.421 8.9001L160.462 9.69399C160.985 8.17679 161.862 7.55932 162.992 7.55932C164.106 7.55932 164.73 8.05329 164.73 9.14709V9.27058L160.648 10.4173C159.096 10.8584 158.235 11.6699 158.235 13.0283C158.235 14.2456 159.214 15.5511 161.171 15.5511C162.841 15.5511 164.072 14.6161 164.73 13.2047H164.781V13.3988C164.781 14.7925 165.759 15.5158 167.024 15.5158C167.615 15.5158 168.408 15.3394 168.829 15.1453V13.2224C168.593 13.3635 168.239 13.4517 167.986 13.4517H168.003ZM161.879 13.5576C161.052 13.5576 160.698 13.0812 160.698 12.6402C160.698 12.1286 161.137 11.9522 161.778 11.7228L164.713 10.6819V11.5993C164.291 12.7813 162.908 13.5576 161.896 13.5576H161.879Z" fill="#0D2750"/>
<path d="M172.118 15.3394V2.46082H169.588V15.3394H172.118Z" fill="#0D2750"/>
<path d="M172.912 7.82395H174.346V13.0812C174.346 14.6337 175.072 15.5158 177.248 15.5158C178.294 15.5158 178.85 15.4276 179.643 15.2688V13.4164C179.137 13.5046 178.682 13.5752 178.243 13.5752C177.214 13.5752 176.877 13.24 176.877 12.058V7.82395H179.559V5.93627H176.877V3.20178H175.746L174.616 5.93627H172.912V7.82395Z" fill="#0D2750"/>
<path d="M186.571 5.72457C184.85 5.72457 183.72 6.58902 183.298 7.98273H183.247V2.46082H180.717V15.3394H183.247V10.3115C183.247 8.72369 184.175 7.85923 185.508 7.85923C186.706 7.85923 187.33 8.54727 187.33 9.83512V15.3394H189.86V9.48229C189.86 7.04771 188.679 5.72457 186.571 5.72457Z" fill="#0D2750"/>
<path d="M89.7821 19.6172H84.4851V32.4958H85.4804V27.309H89.6978C92.4981 27.309 94.1513 25.8977 94.1513 23.3749C94.1513 20.8345 92.4813 19.6172 89.7821 19.6172ZM85.4804 26.4093V20.5346H89.7146C91.8571 20.5346 93.1392 21.3814 93.1392 23.4278C93.1392 25.4037 91.874 26.4093 89.6472 26.4093H85.4804Z" fill="#0D2750"/>
<path d="M94.7435 29.8142C95.3339 31.4372 96.6666 32.6898 99.2983 32.6898C101.542 32.6898 103.128 31.596 103.128 29.8142C103.128 28.1206 101.711 27.5207 100.142 27.3443C99.4501 27.2738 98.7922 27.2208 98.1005 27.1326C96.9534 27.0091 96.3124 26.6034 96.3124 25.6683C96.3124 24.5569 97.5101 23.8512 98.9609 23.8512C100.294 23.8512 101.407 24.3805 102.065 25.6507L102.79 25.1391C101.997 23.6219 100.53 23.0044 98.944 23.0044C96.8691 23.0044 95.3508 24.1335 95.3508 25.7742C95.3508 27.3443 96.6666 27.9089 97.9993 28.0676C98.6572 28.1382 99.3826 28.1911 100.007 28.2617C101.289 28.4028 102.166 28.8262 102.166 29.9377C102.166 31.1726 100.867 31.843 99.3152 31.843C97.2908 31.843 96.1099 30.9786 95.587 29.4614L94.7435 29.8142Z" fill="#0D2750"/>
<path d="M107.81 31.7548H107.776C107.675 31.3667 107.54 30.9962 107.439 30.7139L104.335 23.1985H103.272L106.612 31.1373C106.916 31.843 107.085 32.4958 107.085 32.9544C107.085 33.713 106.68 34.6128 106.089 35.0009C105.685 35.2655 105.246 35.3537 104.689 35.3537C104.133 35.3537 103.711 35.2832 103.239 35.1068V35.9183C103.492 36.0594 104.048 36.1829 104.639 36.1829C106.326 36.1829 107.304 35.4596 107.911 33.8895L112.146 23.1985H111.117L107.81 31.7548Z" fill="#0D2750"/>
<path d="M120.45 28.3852C120.197 30.414 119.084 31.843 116.941 31.843C114.748 31.843 113.432 30.3258 113.432 27.9089C113.432 25.2802 114.951 23.8689 116.992 23.8689C118.898 23.8689 119.978 25.1038 120.332 26.868L121.277 26.6387C120.906 24.4863 119.269 23.0221 116.975 23.0221C114.411 23.0221 112.403 24.9097 112.403 27.9794C112.403 30.7492 114.04 32.6898 116.857 32.6898C119.539 32.6898 121.091 30.9433 121.429 28.5087L120.45 28.3852Z" fill="#0D2750"/>
<path d="M127.801 23.0044C125.979 23.0044 124.714 23.9747 124.208 25.4566H124.191V19.6172H123.196V32.4958H124.191V27.4678C124.191 25.4743 125.406 23.8865 127.498 23.8865C129.303 23.8865 130.298 24.945 130.298 26.9562V32.4958H131.293V26.7798C131.293 24.4158 129.977 23.0044 127.801 23.0044Z" fill="#0D2750"/>
<path d="M137.661 32.6898C140.512 32.6898 142.317 30.5551 142.317 27.8559C142.317 25.1567 140.512 23.0221 137.661 23.0221C134.793 23.0221 133.005 25.1567 133.005 27.8559C133.005 30.5551 134.793 32.6898 137.661 32.6898ZM137.661 31.843C135.468 31.843 134.034 30.2376 134.034 27.8559C134.034 25.4743 135.468 23.8689 137.661 23.8689C139.854 23.8689 141.271 25.4743 141.271 27.8559C141.271 30.2376 139.854 31.843 137.661 31.843Z" fill="#0D2750"/>
<path d="M145.09 32.4958V19.6172H144.094V32.4958H145.09Z" fill="#0D2750"/>
<path d="M151.542 32.6898C154.393 32.6898 156.198 30.5551 156.198 27.8559C156.198 25.1567 154.393 23.0221 151.542 23.0221C148.674 23.0221 146.886 25.1567 146.886 27.8559C146.886 30.5551 148.674 32.6898 151.542 32.6898ZM151.542 31.843C149.349 31.843 147.915 30.2376 147.915 27.8559C147.915 25.4743 149.349 23.8689 151.542 23.8689C153.735 23.8689 155.152 25.4743 155.152 27.8559C155.152 30.2376 153.735 31.843 151.542 31.843Z" fill="#0D2750"/>
<path d="M165.583 25.4214H165.549C164.942 24.01 163.458 23.0221 161.754 23.0221C159.308 23.0221 157.384 24.9627 157.384 27.8559C157.384 30.7139 159.24 32.6898 161.72 32.6898C163.458 32.6898 164.942 31.7019 165.549 30.2729H165.583V31.8959C165.583 34.1541 164.2 35.3185 162.091 35.3185C160.37 35.3185 159.173 34.7363 158.38 33.519L157.688 34.1541C158.65 35.5654 160.101 36.1829 162.091 36.1829C164.638 36.1829 166.578 34.9127 166.578 31.596V23.1985H165.583V25.4214ZM161.956 31.843C159.864 31.843 158.414 30.2376 158.414 27.8559C158.414 25.4566 159.864 23.8689 161.956 23.8689C164.065 23.8689 165.617 25.4743 165.617 27.6266V28.0853C165.617 30.2023 164.065 31.843 161.956 31.843Z" fill="#0D2750"/>
<path d="M172.207 31.7548H172.173C172.072 31.3667 171.937 30.9962 171.836 30.7139L168.732 23.1985H167.669L171.009 31.1373C171.313 31.843 171.482 32.4958 171.482 32.9544C171.482 33.713 171.077 34.6128 170.486 35.0009C170.082 35.2655 169.643 35.3537 169.086 35.3537C168.53 35.3537 168.108 35.2832 167.636 35.1068V35.9183C167.889 36.0594 168.445 36.1829 169.036 36.1829C170.723 36.1829 171.701 35.4596 172.308 33.8895L176.543 23.1985H175.514L172.207 31.7548Z" fill="#0D2750"/>
<defs>
<linearGradient id="paint0_linear_1_23" x1="16.5761" y1="0.278385" x2="16.5761" y2="34.6214" gradientUnits="userSpaceOnUse">
<stop stop-color="#0068C9"/>
<stop offset="1" stop-color="#0A53D3"/>
</linearGradient>
<linearGradient id="paint1_linear_1_23" x1="19.5559" y1="17.4512" x2="26.5758" y2="24.1647" gradientUnits="userSpaceOnUse">
<stop stop-color="#0D2750"/>
<stop offset="1" stop-color="#0D2750" stop-opacity="0"/>
</linearGradient>
<linearGradient id="paint2_linear_1_23" x1="36.0638" y1="0.278385" x2="36.0638" y2="34.6214" gradientUnits="userSpaceOnUse">
<stop stop-color="#00B6F0"/>
<stop offset="1" stop-color="#00A7F0"/>
</linearGradient>
<linearGradient id="paint3_linear_1_23" x1="39.135" y1="17.4512" x2="46.1541" y2="24.163" gradientUnits="userSpaceOnUse">
<stop stop-color="#0560CD"/>
<stop offset="0.994792" stop-color="#0560CD" stop-opacity="0"/>
</linearGradient>
<linearGradient id="paint4_linear_1_23" x1="55.7313" y1="0.278385" x2="55.7313" y2="34.6214" gradientUnits="userSpaceOnUse">
<stop offset="0.46875" stop-color="#58D7FF"/>
<stop offset="1" stop-color="#46CDFC"/>
</linearGradient>
</defs>
</svg>
